<svg width="188" height="57" viewBox="0 0 188 57" fill="none" xmlns="http://www.w3.org/2000/svg">
<path d="M37.2788 4.66797H37.0573C29.7218 4.66797 23.7761 10.6135 23.7761 17.9474V20.0249C23.6589 19.9167 23.5326 19.8034 23.3979 19.6862C23.3927 19.6823 23.3888 19.6771 23.3836 19.6739C22.1815 18.6345 20.3674 17.3607 18.6051 17.2759C18.3402 17.2648 18.0772 17.2797 17.8175 17.3244C17.2501 17.4255 16.5435 17.7026 15.9146 18.3981C15.9146 18.3981 15.9146 18.4001 15.9127 18.4001C15.583 18.766 15.2747 19.2452 15.0189 19.874C14.9431 20.0611 14.8803 20.2502 14.8317 20.4432C14.3738 22.2144 15.0085 24.2212 16.1271 26.3129C17.0675 28.0731 18.3505 29.8948 19.6155 31.6905C21.5164 34.389 23.4788 37.1743 23.7612 39.1112C23.7683 39.1488 23.7722 39.187 23.7755 39.2233C23.7897 39.3405 23.7755 39.4557 23.7755 39.5658V43.6068C23.7703 43.6592 23.7703 43.713 23.7703 43.7654C23.7703 43.8179 23.7703 43.8736 23.7755 43.926C23.7865 44.2647 23.8331 44.5963 23.916 44.9149C24.4244 46.9024 26.2295 48.3685 28.3753 48.3685H29.0903V46.1887H28.3759C27.4536 46.1887 26.6518 45.6732 26.2425 44.9149C26.0553 44.5723 25.9504 44.1799 25.9504 43.7654C25.9504 43.3976 26.0333 43.0486 26.1809 42.7351C26.5682 41.912 27.4083 41.3428 28.3753 41.3428H48.3683C49.5795 41.3428 50.5594 40.363 50.5594 39.154V17.9474C50.5601 10.6135 44.6138 4.66797 37.2788 4.66797Z" fill="url(#paint0_linear_6466_12991)"/>
<path d="M49.4143 46.1895H47.8586H38.8203V48.3687H47.8586H49.47C50.1041 48.3687 50.6119 47.8273 50.5555 47.1816C50.5063 46.6091 49.9888 46.1895 49.4143 46.1895Z" fill="url(#paint1_linear_6466_12991)"/>
<path d="M30.3516 43.7637V51.0244C30.3516 51.4369 30.5355 51.8404 30.8775 52.0696C31.3691 52.396 31.998 52.3235 32.3982 51.9239L33.919 50.4034C33.9228 50.3982 33.93 50.3982 33.9351 50.4034L35.4902 51.9582C35.647 52.1169 35.84 52.2412 36.0563 52.295C36.3678 52.3708 36.6781 52.3293 36.952 52.1745C37.3413 51.9563 37.5576 51.5244 37.5576 51.0795V43.7637H30.3516Z" fill="url(#paint2_linear_6466_12991)"/>
<path d="M80.4569 35.5545C80.7565 36.0144 81.1137 36.4168 81.5286 36.7617C81.9664 37.0836 82.3121 37.3481 82.5656 37.555C82.8192 37.739 82.9459 37.9459 82.9459 38.1759V38.2794C82.9459 38.6703 82.6809 38.8657 82.1508 38.8657H74.9258C74.4188 38.8657 74.1653 38.6703 74.1653 38.2794V38.1759C74.1653 37.9689 74.292 37.739 74.5455 37.486C74.8221 37.2101 75.0065 36.9687 75.0987 36.7617C75.2139 36.5318 75.1563 36.1293 74.9258 35.5545L71.296 29.5528L67.4934 29.6218V35.5545C67.4934 36.0834 67.7354 36.6007 68.2193 37.1066C68.7264 37.5895 68.9799 37.9459 68.9799 38.1759V38.2794C68.9799 38.6703 68.7033 38.8657 68.1502 38.8657H61.6512C61.1441 38.8657 60.8906 38.6703 60.8906 38.2794V38.1759C60.8906 37.9459 61.1096 37.5895 61.5474 37.1066C61.9853 36.6007 62.2043 36.0834 62.2043 35.5545V17.6874C62.2043 17.1585 61.9853 16.6526 61.5474 16.1697C61.1096 15.6638 60.8906 15.2959 60.8906 15.0659V14.928C60.8906 14.5601 61.1441 14.3761 61.6512 14.3761H70.1898C73.3932 14.3761 75.9283 15.0315 77.7951 16.3422C79.6849 17.6529 80.6413 19.573 80.6643 22.1024C80.6643 23.5051 80.2495 24.8043 79.4198 26.0001C78.6132 27.1728 77.4494 28.0811 75.9283 28.725L80.4569 35.5545ZM69.4293 27.5177H70.9158C72.2294 27.5177 73.278 27.1153 74.0616 26.3105C74.8682 25.4827 75.2715 24.2754 75.2715 22.6888C75.2715 20.8032 74.7184 19.297 73.6122 18.1703C72.529 17.0435 71.273 16.4801 69.8441 16.4801H68.6687C67.8852 16.4801 67.4934 16.9975 67.4934 18.0323V25.2067C67.4934 26.0345 67.6432 26.6324 67.9428 27.0003C68.2654 27.3453 68.7609 27.5177 69.4293 27.5177Z" fill="url(#paint3_linear_6466_12991)"/>
<path d="M97.0581 33.6229C97.2655 33.347 97.519 33.255 97.8186 33.347C98.1182 33.4389 98.2565 33.6574 98.2334 34.0023C98.1182 35.198 97.4268 36.3708 96.1593 37.5205C94.8917 38.6473 93.2439 39.2107 91.2158 39.2107C88.7729 39.2107 86.7679 38.4058 85.2008 36.7962C83.6336 35.1865 82.85 33.071 82.85 30.4496C82.85 27.9891 83.6682 25.9656 85.3045 24.3789C86.9407 22.7693 88.9112 21.9644 91.2158 21.9644C93.313 21.9644 94.9263 22.4588 96.0556 23.4476C97.1848 24.4364 97.7495 25.5747 97.7495 26.8624C97.7495 27.9201 97.2424 28.679 96.2284 29.1389L88.554 32.6226C89.4989 34.6232 91.0199 35.6235 93.1172 35.6235C93.9929 35.6235 94.7765 35.4395 95.4679 35.0716C96.1823 34.6807 96.7124 34.1978 97.0581 33.6229ZM90.5936 23.4821C89.6948 23.4821 88.9803 23.919 88.4503 24.7928C87.9202 25.6436 87.6552 26.7359 87.6552 28.0696C87.6552 29.1964 87.7704 30.1851 88.0009 31.036L92.4603 28.7939C93.0595 28.495 93.3591 27.9546 93.3591 27.1728C93.3591 26.391 93.1056 25.5861 92.5986 24.7583C92.0916 23.9075 91.4233 23.4821 90.5936 23.4821Z" fill="url(#paint4_linear_6466_12991)"/>
<path d="M108.577 39.2107C106.019 39.2107 103.887 38.3599 102.182 36.6582C100.499 34.9566 99.6581 32.9215 99.6581 30.5531C99.6581 27.9776 100.499 25.9081 102.182 24.3444C103.887 22.7808 105.95 21.9874 108.37 21.9644C110.352 21.9414 112.034 22.4013 113.417 23.3441C114.823 24.2869 115.525 25.4367 115.525 26.7934C115.525 27.2993 115.353 27.7247 115.007 28.0696C114.661 28.3915 114.12 28.541 113.382 28.518C112.829 28.495 112.345 28.2996 111.93 27.9316C111.515 27.5637 111.17 27.1383 110.893 26.6554C110.64 26.1725 110.375 25.6896 110.098 25.2067C109.821 24.7238 109.476 24.3214 109.061 23.9995C108.646 23.6546 108.162 23.4821 107.609 23.4821C106.641 23.4821 105.858 23.919 105.258 24.7928C104.682 25.6666 104.394 26.7589 104.394 28.0696C104.394 30.3691 104.924 32.2087 105.984 33.5884C107.067 34.9681 108.496 35.6579 110.271 35.6579C112.092 35.6579 113.474 34.8531 114.419 33.2435C114.557 33.0595 114.719 32.956 114.903 32.933C115.111 32.8871 115.283 32.933 115.422 33.071C115.583 33.186 115.652 33.3584 115.629 33.5884C115.514 35.1291 114.834 36.4513 113.59 37.555C112.368 38.6588 110.697 39.2107 108.577 39.2107Z" fill="url(#paint5_linear_6466_12991)"/>
<path d="M123.886 19.0326C123.287 19.5845 122.481 19.8604 121.467 19.8604C120.452 19.8604 119.623 19.5845 118.978 19.0326C118.355 18.4577 118.044 17.7219 118.044 16.8251C118.044 15.9513 118.355 15.2384 118.978 14.6865C119.623 14.1117 120.452 13.8242 121.467 13.8242C122.481 13.8242 123.287 14.1117 123.886 14.6865C124.509 15.2384 124.82 15.9513 124.82 16.8251C124.82 17.7219 124.509 18.4577 123.886 19.0326ZM118.321 38.8657C117.814 38.8657 117.56 38.6703 117.56 38.2794V38.1414C117.56 37.9115 117.779 37.555 118.217 37.0721C118.655 36.5892 118.874 36.0719 118.874 35.52V27.7247C118.874 27.1498 118.655 26.6094 118.217 26.1035C117.779 25.5976 117.56 25.2527 117.56 25.0688V24.9653C117.56 24.7353 117.802 24.4939 118.286 24.2409L122.607 22.1024C123.045 21.9184 123.391 21.907 123.644 22.0679C123.898 22.2059 124.025 22.4473 124.025 22.7923V35.52C124.025 36.0719 124.267 36.5892 124.751 37.0721C125.235 37.555 125.477 37.9115 125.477 38.1414V38.2794C125.477 38.6703 125.212 38.8657 124.681 38.8657H118.321Z" fill="url(#paint6_linear_6466_12991)"/>
<path d="M155.589 35.4855C155.682 36.0374 155.935 36.5662 156.35 37.0721C156.788 37.555 157.007 37.923 157.007 38.1759V38.2794C157.007 38.6703 156.742 38.8657 156.212 38.8657H149.989C149.459 38.8657 149.194 38.6703 149.194 38.2794V38.1759C149.194 37.9689 149.425 37.6125 149.886 37.1066C150.346 36.6007 150.519 36.0604 150.404 35.4855L147.984 21.792L142.142 37.9C141.935 38.5208 141.566 38.8312 141.036 38.8312C140.46 38.8312 140.033 38.5323 139.757 37.9344L133.361 21.1711L131.149 35.4855C131.057 36.0604 131.241 36.6007 131.702 37.1066C132.163 37.6125 132.393 37.9689 132.393 38.1759V38.2794C132.393 38.6703 132.14 38.8657 131.633 38.8657H127.727C127.22 38.8657 126.966 38.6703 126.966 38.2794V38.1759C126.966 37.923 127.173 37.555 127.588 37.0721C128.003 36.5662 128.257 36.0374 128.349 35.4855L131.218 17.7219C131.287 17.193 131.091 16.6756 130.63 16.1697C130.169 15.6638 129.939 15.2959 129.939 15.0659V14.9625C129.939 14.5716 130.181 14.3761 130.665 14.3761H134.468C135.32 14.3761 135.885 14.7555 136.161 15.5143L141.762 31.7603L147.293 15.5143C147.569 14.7555 148.099 14.3761 148.883 14.3761H152.858C153.342 14.3761 153.584 14.5601 153.584 14.928V15.0659C153.584 15.2959 153.446 15.5373 153.17 15.7903C152.916 16.0432 152.686 16.3422 152.478 16.6871C152.271 17.009 152.202 17.3999 152.271 17.8598L155.589 35.4855Z" fill="url(#paint7_linear_6466_12991)"/>
<path d="M172.139 33.6229C172.346 33.347 172.599 33.255 172.899 33.347C173.199 33.4389 173.337 33.6574 173.314 34.0023C173.199 35.198 172.507 36.3708 171.24 37.5205C169.972 38.6473 168.324 39.2107 166.296 39.2107C163.853 39.2107 161.848 38.4058 160.281 36.7962C158.714 35.1865 157.93 33.071 157.93 30.4496C157.93 27.9891 158.749 25.9656 160.385 24.3789C162.021 22.7693 163.992 21.9644 166.296 21.9644C168.393 21.9644 170.007 22.4588 171.136 23.4476C172.265 24.4364 172.83 25.5747 172.83 26.8624C172.83 27.9201 172.323 28.679 171.309 29.1389L163.634 32.6226C164.579 34.6232 166.1 35.6235 168.198 35.6235C169.073 35.6235 169.857 35.4395 170.548 35.0716C171.263 34.6807 171.793 34.1978 172.139 33.6229ZM165.674 23.4821C164.775 23.4821 164.061 23.919 163.531 24.7928C163.001 25.6436 162.736 26.7359 162.736 28.0696C162.736 29.1964 162.851 30.1851 163.081 31.036L167.541 28.7939C168.14 28.495 168.44 27.9546 168.44 27.1728C168.44 26.391 168.186 25.5861 167.679 24.7583C167.172 23.9075 166.504 23.4821 165.674 23.4821Z" fill="url(#paint8_linear_6466_12991)"/>
<defs>
<linearGradient id="paint0_linear_6466_12991" x1="50.5594" y1="48.3685" x2="7.69541" y2="13.1775" gradientUnits="userSpaceOnUse">
<stop stop-color="#FF7A00"/>
<stop offset="1" stop-color="#FFC531"/>
</linearGradient>
<linearGradient id="paint1_linear_6466_12991" x1="50.5598" y1="48.3687" x2="49.7777" y2="44.1554" gradientUnits="userSpaceOnUse">
<stop stop-color="#FF7A00"/>
<stop offset="1" stop-color="#FFC531"/>
</linearGradient>
<linearGradient id="paint2_linear_6466_12991" x1="37.5576" y1="52.3319" x2="29.1162" y2="45.2325" gradientUnits="userSpaceOnUse">
<stop stop-color="#FF7A00"/>
<stop offset="1" stop-color="#FFC531"/>
</linearGradient>
<linearGradient id="paint3_linear_6466_12991" x1="173.316" y1="39.2107" x2="162.408" y2="-9.09899" gradientUnits="userSpaceOnUse">
<stop stop-color="#FF7A00"/>
<stop offset="1" stop-color="#FFC531"/>
</linearGradient>
<linearGradient id="paint4_linear_6466_12991" x1="173.316" y1="39.2107" x2="162.408" y2="-9.09899" gradientUnits="userSpaceOnUse">
<stop stop-color="#FF7A00"/>
<stop offset="1" stop-color="#FFC531"/>
</linearGradient>
<linearGradient id="paint5_linear_6466_12991" x1="173.316" y1="39.2107" x2="162.408" y2="-9.09899" gradientUnits="userSpaceOnUse">
<stop stop-color="#FF7A00"/>
<stop offset="1" stop-color="#FFC531"/>
</linearGradient>
<linearGradient id="paint6_linear_6466_12991" x1="173.316" y1="39.2107" x2="162.408" y2="-9.09899" gradientUnits="userSpaceOnUse">
<stop stop-color="#FF7A00"/>
<stop offset="1" stop-color="#FFC531"/>
</linearGradient>
<linearGradient id="paint7_linear_6466_12991" x1="173.316" y1="39.2107" x2="162.408" y2="-9.09899" gradientUnits="userSpaceOnUse">
<stop stop-color="#FF7A00"/>
<stop offset="1" stop-color="#FFC531"/>
</linearGradient>
<linearGradient id="paint8_linear_6466_12991" x1="173.316" y1="39.2107" x2="162.408" y2="-9.09899" gradientUnits="userSpaceOnUse">
<stop stop-color="#FF7A00"/>
<stop offset="1" stop-color="#FFC531"/>
</linearGradient>
</defs>
</svg>
